<?xml version="1.0" encoding="UTF-8" standalone="no"?>
<!-- Created with Inkscape (http://www.inkscape.org/) -->

<svg
   width="512"
   height="512"
   viewBox="0 0 512 512"
   version="1.1"
   id="svg1"
   inkscape:version="1.4.3 (0d15f75042, 2025-12-25)"
   sodipodi:docname="icon-512.svg"
   xml:space="preserve"
   xmlns:inkscape="http://www.inkscape.org/namespaces/inkscape"
   xmlns:sodipodi="http://sodipodi.sourceforge.net/DTD/sodipodi-0.dtd"
   xmlns="http://www.w3.org/2000/svg"
   xmlns:svg="http://www.w3.org/2000/svg"><sodipodi:namedview
     id="namedview1"
     pagecolor="#ffffff"
     bordercolor="#000000"
     borderopacity="0.25"
     inkscape:showpageshadow="2"
     inkscape:pageopacity="0.0"
     inkscape:pagecheckerboard="0"
     inkscape:deskcolor="#d1d1d1"
     inkscape:document-units="px"
     inkscape:zoom="12.25"
     inkscape:cx="275.71428"
     inkscape:cy="156.89795"
     inkscape:window-width="1920"
     inkscape:window-height="972"
     inkscape:window-x="0"
     inkscape:window-y="0"
     inkscape:window-maximized="1"
     inkscape:current-layer="layer1" /><defs
     id="defs1" /><g
     inkscape:label="圖層 1"
     inkscape:groupmode="layer"
     id="layer1"
     transform="matrix(0.74462358,0,0,0.74462358,65.376364,65.376364)"><path
       style="fill:#000000"
       d="m 78.607224,554.222 c -8.83031,-4.73575 -18.78389,-13.70923 -22.11907,-19.94108 -3.33518,-6.23184 -15.56507,-15.8908 -27.17752,-21.46434 -34.8181904,-16.71144 -37.9589604,-27.93866 -37.8341604,-135.24486 0.10633,-91.42738 0.10633,-91.42738 -22.3219996,-185.54722 -24.85273,-104.293723 -24.07528,-120.210281 6.65824,-136.313199 6.63521,-3.476538 16.6360996,-15.847493 22.22419,-27.491009 16.77444,-34.9517254 27.7484,-37.9956686 137.012836,-38.0044382 93.16889,-0.00748 93.16889,-0.00748 185.49047,-22.3489248 102.3125,-24.759199 118.5223,-23.940571 134.6284,6.798974 3.4766,6.635211 15.8475,16.6360963 27.491,22.2241887 34.9309,16.7644533 37.9957,27.7856533 38.0045,136.6684083 0.01,92.82446 0.01,92.82446 21.9887,180.3553 26.3111,104.77279 24.6488,123.43346 -12.9971,145.90048 -4.03,2.40506 -11.4894,13.03438 -16.5766,23.62071 -15.738,32.75039 -28.2404,36.07361 -135.7471,36.08227 -92.814,0.007 -92.814,0.007 -182.25614,21.66133 C 91.777054,566.18712 99.338514,565.34031 78.607224,554.222 Z M 311.24841,493.0575 c 113.7466,-27.78832 208.4323,-50.52423 210.4126,-50.52423 28.4163,0 25.2194,-26.92082 -30.1353,-253.76171 -63.699,-261.035455 -23.3398,-237.361723 -292.68366,-171.681396 -236.825436,57.75061 -216.007126,51.104894 -224.613176,71.702053 -6.18718,14.808013 82.53407,408.756373 98.08913,435.544493 3.70524,6.38096 23.24061,18.98851 29.712416,19.17551 1.32329,0.0382 95.47139,-22.66639 209.21799,-50.45472 z M 82.788604,395.61659 c 0.0103,-14.35948 93.734236,-244.20732 99.579216,-244.20732 3.03501,0 28.32754,20.02981 56.20561,44.5107 60.32728,52.97587 54.85238,52.00905 75.43338,13.32066 22.2098,-41.75031 17.1143,-43.02935 99.8412,25.06151 78.5961,64.69095 82.7359,70.54945 55.0949,77.96847 -197.8797,53.11218 -386.161776,93.75022 -386.154306,83.34598 z m 401.144306,94.68709 c 26.1825,-20.59519 15.7136,-23.07586 -40.1337,-9.50985 -67.1129,16.30258 -69.7258,19.48304 -16.006,19.48304 36.6819,0 45.4384,-1.5556 56.1397,-9.97319 z M 30.086094,442.6524 c -16.30258,-67.11294 -19.48304,-69.7258 -19.48304,-16.00596 0,36.68182 1.5556,45.43839 9.97319,56.13961 20.5952,26.18255 23.07586,15.71361 9.50985,-40.13365 z M 492.68661,28.908252 c -25.8296,-34.6312964 -25.1391,-6.790586 2.2027,88.817248 3.1747,11.10107 4.4511,3.92275 5.5252,-31.073643 1.1838,-38.571285 0.01,-47.374718 -7.7279,-57.743605 z M 69.186204,28.117954 C 133.45707,13.494577 136.79617,8.935249 82.075194,10.518835 c -45.33347,1.311919 -66.66017,8.908068 -66.66017,23.743039 0,5.711219 3.34848,5.32862 53.77118,-6.14392 z"
       id="path1"
       sodipodi:nodetypes="sssssssssssccssccsssssssssssssssssssssssscsscssss" /><circle
       style="fill:#000000;stroke:#ff0000;stroke-width:0;stroke-dasharray:none"
       id="path2"
       cy="121.92319"
       cx="267.51108"
       r="31.79253" /></g></svg>
