<?xml version="1.0" encoding="UTF-8" standalone="no"?>
<!-- Created with Inkscape (http://www.inkscape.org/) -->

<svg
   width="512"
   height="512"
   viewBox="0 0 512 512"
   version="1.1"
   id="svg1"
   inkscape:version="1.4.3 (0d15f75042, 2025-12-25)"
   sodipodi:docname="property.svg"
   xmlns:inkscape="http://www.inkscape.org/namespaces/inkscape"
   xmlns:sodipodi="http://sodipodi.sourceforge.net/DTD/sodipodi-0.dtd"
   xmlns="http://www.w3.org/2000/svg"
   xmlns:svg="http://www.w3.org/2000/svg">
  <sodipodi:namedview
     id="namedview1"
     pagecolor="#ffffff"
     bordercolor="#000000"
     borderopacity="0.25"
     inkscape:showpageshadow="2"
     inkscape:pageopacity="0.0"
     inkscape:pagecheckerboard="0"
     inkscape:deskcolor="#d1d1d1"
     inkscape:document-units="px"
     inkscape:zoom="1.0827573"
     inkscape:cx="168.55116"
     inkscape:cy="327.86664"
     inkscape:window-width="1920"
     inkscape:window-height="972"
     inkscape:window-x="0"
     inkscape:window-y="0"
     inkscape:window-maximized="1"
     inkscape:current-layer="svg1" />
  <defs
     id="defs1" />
  <g
     inkscape:label="圖層 1"
     inkscape:groupmode="layer"
     id="layer1"
     transform="matrix(0.744624 0 0 0.744624 65.3764 65.3764)" />
  <g
     inkscape:label="Rendered Gears"
     transform="matrix(1.8233495,0,0,1.8237098,256,256)"
     id="g28"
     style="stroke-width:7.24539;stroke-dasharray:none;fill:#808080">
    <path
       style="fill:#808080;stroke:#000000;stroke-width:7.24539;stroke-dasharray:none"
       d="m 78.8779,-10.5285 14.3376,-1.9137 1.4605,-0.0221 16.509,5.40513 V 7.05917 L 94.676,12.4643 93.2155,12.4422 78.8779,10.5285 73.5745,30.321 86.9481,35.8325 88.224,36.5436 99.8183,49.4789 92.7591,61.7057 75.7597,58.1324 74.5059,57.383 63.046,48.5569 48.5569,63.046 57.383,74.5059 58.1324,75.7597 61.7057,92.7591 49.4789,99.8183 36.5436,88.224 35.8325,86.9481 30.321,73.5745 10.5285,78.8779 12.4422,93.2155 12.4643,94.676 7.05917,111.185 H -7.05917 l -5.40513,-16.509 0.0221,-1.4605 1.9137,-14.3376 -19.7925,-5.3034 -5.5115,13.3736 -0.7111,1.2759 -12.9353,11.5943 -12.2268,-7.0592 3.5733,-16.9994 0.7494,-1.2538 8.8261,-11.4599 -14.4891,-14.4891 -11.4599,8.8261 -1.2538,0.7494 -16.9994,3.5733 -7.0592,-12.2268 11.5943,-12.9353 1.2759,-0.7111 13.3736,-5.5115 -5.3034,-19.7925 -14.3376,1.9137 -1.4605,0.0221 -16.509,-5.40513 V -7.05917 l 16.509,-5.40513 1.4605,0.0221 14.3376,1.9137 5.3034,-19.7925 -13.3736,-5.5115 -1.2759,-0.7111 -11.5943,-12.9353 7.0592,-12.2268 16.9994,3.5733 1.2538,0.7494 11.4599,8.8261 14.4891,-14.4891 -8.8261,-11.4599 -0.7494,-1.2538 -3.5733,-16.9994 12.2268,-7.0592 12.9353,11.5943 0.7111,1.2759 5.5115,13.3736 19.7925,-5.3034 -1.9137,-14.3376 -0.0221,-1.4605 5.40513,-16.509 H 7.05917 l 5.40513,16.509 -0.0221,1.4605 -1.9137,14.3376 19.7925,5.3034 5.5115,-13.3736 0.7111,-1.2759 12.9353,-11.5943 12.2268,7.0592 -3.5733,16.9994 -0.7494,1.2538 -8.8261,11.4599 14.4891,14.4891 11.4599,-8.8261 1.2538,-0.7494 16.9994,-3.5733 7.0592,12.2268 -11.5943,12.9353 -1.2759,0.7111 -13.3736,5.5115 z"
       id="path27" />
    <circle
       style="fill:#808080;stroke:#000000;stroke-width:7.24539;stroke-dasharray:none"
       id="path28"
       cx="0"
       cy="0"
       r="37.5" />
  </g>
  <path
     style="fill:#ffffff;stroke:none;stroke-width:13.8535;stroke-dasharray:none"
     d="m 246.13087,316.6115 c -10.83057,-1.7945 -23.27258,-8.09161 -31.86033,-16.12504 -23.21762,-21.71894 -25.98798,-56.69462 -6.497,-82.0246 5.70445,-7.41336 13.01807,-13.21205 22.09278,-17.51652 12.05713,-5.71914 22.39587,-7.41027 34.29315,-5.60941 41.58979,6.29534 65.08131,50.21654 46.68003,87.27588 -10.69754,21.54436 -32.11613,34.86202 -55.47295,34.49199 -3.80971,-0.0604 -7.96577,-0.28189 -9.23568,-0.4923 z"
     id="path29" />
</svg>
