<?xml version="1.0" encoding="UTF-8" standalone="no"?>
<!-- Created with Inkscape (http://www.inkscape.org/) -->

<svg
   width="512"
   height="512"
   viewBox="0 0 512 512"
   version="1.1"
   id="svg1"
   inkscape:version="1.4.3 (0d15f75042, 2025-12-25)"
   sodipodi:docname="save.svg"
   xmlns:inkscape="http://www.inkscape.org/namespaces/inkscape"
   xmlns:sodipodi="http://sodipodi.sourceforge.net/DTD/sodipodi-0.dtd"
   xmlns="http://www.w3.org/2000/svg"
   xmlns:svg="http://www.w3.org/2000/svg">
  <sodipodi:namedview
     id="namedview1"
     pagecolor="#ffffff"
     bordercolor="#000000"
     borderopacity="0.25"
     inkscape:showpageshadow="2"
     inkscape:pageopacity="0.0"
     inkscape:pagecheckerboard="0"
     inkscape:deskcolor="#d1d1d1"
     inkscape:document-units="px"
     inkscape:zoom="0.853896"
     inkscape:cx="300.38787"
     inkscape:cy="363.04187"
     inkscape:window-width="1920"
     inkscape:window-height="972"
     inkscape:window-x="0"
     inkscape:window-y="0"
     inkscape:window-maximized="1"
     inkscape:current-layer="layer1"
     showguides="true" />
  <defs
     id="defs1" />
  <g
     inkscape:label="圖層 1"
     inkscape:groupmode="layer"
     id="layer1"
     transform="matrix(0.74462358,0,0,0.74462358,65.376364,65.376364)">
    <g
       id="g2"
       transform="translate(-43.712111,-36.233561)">
      <g
         id="g3"
         transform="matrix(0.82631962,0,0,0.82631962,44.462177,44.462177)">
        <path
           class="st0"
           d="m 283.276,454.904 c -4.739,3.858 -9.502,6.888 -14.295,9.177 -3.256,0.348 -6.533,0.603 -9.827,0.796 v -38.201 c -7.878,-6.448 -15.802,-13.144 -23.751,-20.024 v 58.232 c -3.293,-0.2 -6.571,-0.456 -9.818,-0.804 -4.794,-2.289 -9.564,-5.32 -14.303,-9.177 -15.447,-12.572 -29.905,-33.794 -40.992,-61.108 h 50.486 c -8.605,-7.693 -17.218,-15.618 -25.83,-23.75 h -32.959 c -3.936,-13.09 -7.104,-27.207 -9.517,-42.013 -9.378,-9.703 -18.486,-19.429 -27.331,-29.139 1.987,25.281 6.061,49.264 12.13,71.152 H 76.602 C 59.616,342.591 49.086,310.769 47.091,276.581 h 58.24 C 98.45,268.633 91.754,260.708 85.314,252.83 H 47.092 c 0.819,-14.009 3.147,-27.586 6.68,-40.66 -8.064,-11.001 -15.626,-21.84 -22.599,-32.456 -10.368,26.333 -16.127,54.986 -16.127,84.999 0.007,128.262 103.963,232.21 232.226,232.218 30.005,0 58.658,-5.759 84.982,-16.119 -14.14,-9.301 -28.691,-19.638 -43.488,-30.84 -1.818,1.754 -3.642,3.425 -5.49,4.932 z M 105.456,406.53 c -4.067,-4.067 -7.933,-8.335 -11.636,-12.734 h 51.158 c 3.811,10.391 8.002,20.287 12.694,29.379 5.528,10.685 11.652,20.403 18.339,29.016 -26.704,-10.152 -50.686,-25.807 -70.555,-45.661 z"
           id="path2"
           style="fill:#000000" />
        <path
           class="st0"
           d="m 78.442,105.348 c 5.072,9.084 10.839,18.548 17.187,28.296 3.17,-3.68 6.386,-7.314 9.826,-10.754 19.908,-19.893 43.945,-35.58 70.71,-45.731 -12.44,15.973 -22.9,35.788 -31.226,58.457 H 96.89 c 5.086,7.746 10.568,15.679 16.374,23.75 h 24.068 c -2.188,7.878 -4.067,16.074 -5.76,24.454 6.363,8.18 13.02,16.452 19.947,24.787 2.498,-17.458 6.007,-34.042 10.585,-49.242 h 73.3 v 93.464 h -45.12 c 7.338,7.94 14.852,15.865 22.545,23.751 h 22.575 v 22.576 c 7.886,7.685 15.811,15.215 23.751,22.544 v -45.12 h 87.751 c -0.974,34.095 -6.146,65.918 -14.442,93.464 h -17.388 c 11.412,9.192 22.676,17.844 33.694,25.876 0.271,-0.727 0.587,-1.392 0.858,-2.126 h 51.112 c -3.711,4.399 -7.569,8.667 -11.636,12.734 -3.433,3.432 -7.036,6.695 -10.716,9.864 9.734,6.34 19.181,12.092 28.243,17.164 C 451.48,391.22 479.514,331.255 479.514,264.712 479.505,136.451 375.542,32.488 247.272,32.48 180.728,32.488 120.779,60.514 78.442,105.348 Z m 339.514,264.698 h -60.73 c 7.84,-28.259 12.587,-59.88 13.507,-93.464 h 76.734 c -1.995,34.188 -12.525,66.009 -29.511,93.464 z m -0.016,-210.68 c 16.994,27.454 27.524,59.284 29.526,93.464 H 370.655 C 369.727,219.276 365.12,187.608 357.28,159.366 Z M 389.094,122.89 c 4.067,4.067 7.925,8.327 11.628,12.726 H 349.58 c -3.811,-10.383 -8.01,-20.279 -12.695,-29.371 -5.528,-10.677 -11.651,-20.395 -18.331,-29.016 26.696,10.151 50.672,25.815 70.54,45.661 z M 259.154,64.534 c 3.301,0.201 6.58,0.456 9.834,0.804 4.794,2.281 9.548,5.312 14.288,9.169 15.447,12.564 29.897,33.794 40.984,61.108 h -65.106 z m 0,94.832 h 73.409 c 8.296,27.539 13.437,59.4 14.419,93.464 H 259.154 Z M 211.282,74.507 c 4.739,-3.858 9.494,-6.888 14.288,-9.177 3.254,-0.348 6.533,-0.603 9.833,-0.804 v 71.09 h -64.982 c 2.621,-6.472 5.374,-12.718 8.35,-18.47 9.541,-18.494 20.767,-33.044 32.511,-42.639 z"
           id="path2-5"
           style="fill:#000000" />
        <path
           class="st0"
           d="m 503.055,424.249 c -4.809,-12.966 -11.489,-26.982 -19.668,-41.842 -5.59,11.149 -11.929,21.872 -18.981,32.062 3.58,7.399 6.58,14.357 8.953,20.774 4.832,12.95 7.012,23.75 6.973,30.972 0,3.425 -0.456,5.999 -1.052,7.732 -0.602,1.739 -1.236,2.644 -1.963,3.394 -0.735,0.711 -1.632,1.337 -3.379,1.948 -1.724,0.587 -4.298,1.043 -7.724,1.043 -6.819,0.031 -16.838,-1.894 -28.83,-6.185 -12.014,-4.26 -26.031,-10.778 -41.408,-19.328 C 343.256,425.517 274.78,372.31 207.262,304.746 139.698,237.229 86.491,168.752 57.181,116.024 48.631,100.646 42.121,86.637 37.853,74.622 33.57,62.631 31.637,52.612 31.668,45.792 c 0,-3.433 0.464,-6.007 1.052,-7.724 0.603,-1.747 1.23,-2.636 1.948,-3.378 0.758,-0.734 1.654,-1.369 3.402,-1.971 1.724,-0.588 4.298,-1.052 7.739,-1.052 7.213,-0.038 18.014,2.142 30.941,6.959 6.44,2.381 13.43,5.396 20.868,8.983 10.19,-7.051 20.889,-13.39 32.046,-18.98 C 114.773,20.425 100.726,13.738 87.737,8.929 72.537,3.339 58.737,0.045 45.81,-0.001 39.662,0.008 33.662,0.781 27.91,2.722 22.174,4.654 16.699,7.855 12.27,12.308 7.832,16.722 4.639,22.189 2.721,27.918 0.781,33.662 0.008,39.654 0,45.793 c 0.039,12.216 2.984,25.196 8.017,39.43 5.056,14.218 12.3,29.65 21.493,46.195 31.497,56.523 86.112,126.438 155.361,195.718 69.281,69.25 139.196,123.864 195.711,155.362 16.553,9.192 31.985,16.436 46.203,21.493 14.233,5.026 27.214,7.971 39.429,8.01 6.139,0 12.131,-0.781 17.876,-2.714 5.721,-1.924 11.187,-5.11 15.609,-9.548 4.454,-4.438 7.654,-9.912 9.58,-15.633 1.94,-5.752 2.714,-11.752 2.721,-17.89 -0.046,-12.943 -3.34,-26.751 -8.945,-41.967 z"
           id="path3"
           style="fill:#000000" />
      </g>
      <path
         style="fill:#ffffff;stroke:#000000;stroke-width:33.574;stroke-dasharray:none"
         d="m 320.20234,306.77274 v 197.82688 h 197.8269 V 367.07966 l -64.84886,-60.30692 z"
         id="path2-1" />
      <rect
         style="fill:#ffffff;stroke:#000000;stroke-width:67.148;stroke-dasharray:none"
         id="rect2"
         width="52.183601"
         height="0.87703532"
         x="393.02399"
         y="459.18533" />
      <rect
         style="fill:#ffffff;stroke:none;stroke-width:323.352;stroke-dasharray:none"
         id="rect2-3"
         width="27.387209"
         height="38.751343"
         x="379.41595"
         y="446.53372" />
      <path
         style="fill:none;stroke:#ffffff;stroke-width:20.1444;stroke-dasharray:none"
         d="m 296.07294,282.78482 v 247.14875 h 248.8169 V 358.12736 l -81.5637,-75.34254 z"
         id="path2-1-3" />
    </g>
  </g>
</svg>
