<?xml version="1.0" encoding="UTF-8" standalone="no"?>
<!-- Created with Inkscape (http://www.inkscape.org/) -->

<svg
   width="512"
   height="512"
   viewBox="0 0 512 512"
   version="1.1"
   id="svg1"
   inkscape:version="1.4.3 (0d15f75042, 2025-12-25)"
   sodipodi:docname="toggleTouch.svg"
   xml:space="preserve"
   xmlns:inkscape="http://www.inkscape.org/namespaces/inkscape"
   xmlns:sodipodi="http://sodipodi.sourceforge.net/DTD/sodipodi-0.dtd"
   xmlns="http://www.w3.org/2000/svg"
   xmlns:svg="http://www.w3.org/2000/svg"><sodipodi:namedview
     id="namedview1"
     pagecolor="#ffffff"
     bordercolor="#000000"
     borderopacity="0.25"
     inkscape:showpageshadow="2"
     inkscape:pageopacity="0.0"
     inkscape:pagecheckerboard="0"
     inkscape:deskcolor="#d1d1d1"
     inkscape:document-units="px"
     inkscape:zoom="0.76562503"
     inkscape:cx="304.97958"
     inkscape:cy="169.79591"
     inkscape:window-width="1920"
     inkscape:window-height="972"
     inkscape:window-x="0"
     inkscape:window-y="0"
     inkscape:window-maximized="1"
     inkscape:current-layer="layer1"
     showguides="true" /><defs
     id="defs1"><marker
       markerWidth="0.52499997"
       markerHeight="0.99999994"
       refX="0"
       refY="0"
       orient="auto-start-reverse"
       id="marker3"
       viewBox="0 0 0.525 1"
       inkscape:stockid="Triangle cap"
       style="overflow:visible"
       preserveAspectRatio="xMidYMid"
       inkscape:isstock="true"
       inkscape:collect="always"><path
         style="fill:context-stroke;stroke-linecap:butt"
         d="M 0,-1 1,0 0,1 -0.05,0 Z"
         sodipodi:nodetypes="sssssscsss"
         transform="scale(0.5)"
         id="path3" /></marker><marker
       markerWidth="0.52499997"
       markerHeight="0.99999994"
       refX="0"
       refY="0"
       orient="auto-start-reverse"
       id="CapTriangle"
       viewBox="0 0 0.525 1"
       inkscape:stockid="Triangle cap"
       style="overflow:visible"
       preserveAspectRatio="xMidYMid"
       inkscape:isstock="true"
       inkscape:collect="always"><path
         style="fill:context-stroke;stroke-linecap:butt"
         d="M 0,-1 1,0 0,1 -0.05,0 Z"
         sodipodi:nodetypes="sssssscsss"
         transform="scale(0.5)"
         id="path61" /></marker></defs><g
     inkscape:label="圖層 1"
     inkscape:groupmode="layer"
     id="layer1"
     transform="matrix(0.74462358,0,0,0.74462358,65.376364,65.376364)"><rect
       style="fill:none;fill-opacity:1;stroke:#000000;stroke-width:16.5125;stroke-dasharray:none"
       id="rect1"
       width="82.352074"
       height="228.75574"
       x="174.51433"
       y="-156.12018"
       transform="rotate(41.649495)" /><path
       style="fill:none;fill-opacity:1;stroke:#000000;stroke-width:16.5125;stroke-dasharray:none"
       d="m 57.224018,188.18695 73.788552,65.80296 C 105.27713,271.48938 61.271197,283.41464 -1.0052324,289.76568 28.058639,261.90659 47.468383,228.04702 57.224018,188.18695 Z"
       id="path1"
       sodipodi:nodetypes="cccc" /><path
       style="fill:#ffffff;stroke:#28220b;stroke-width:47.6452;stroke-dasharray:none;marker-start:url(#CapTriangle);marker-end:url(#marker3)"
       d="M 12.056887,499.94311 C 499.94311,12.05689 499.94311,12.05689 499.94311,12.05689"
       id="path2" /><path
       style="fill:#000000;stroke-width:0.928385"
       d="m 302.26756,426.78655 c -0.14633,-2.7566 2.9996,-8.51476 6.99098,-12.79595 4.22208,-4.52864 10.38948,-17.22956 14.74712,-30.36969 22.62391,-68.22044 74.81091,-122.4785 100.22037,-102.90806 8.21202,6.32498 7.35921,8.58993 31.58154,-14.84644 27.47121,-26.57981 30.38963,-28.17878 42.32613,-23.19014 22.75038,9.50812 23.30892,27.75636 1.64976,53.90056 -14.03111,16.9366 -19.1221,20.51099 -15.7334,23.30243 5.17857,4.26576 16.76407,8.55964 14.40126,25.94617 -0.22059,1.62315 2.0531,6.33719 6.84716,11.63201 5.69289,6.28753 10.13524,18.6904 11.12802,24.84458 0.86443,5.35841 3.65226,6.96743 7.63853,11.37008 16.21594,17.90972 14.21035,26.81336 -12.49137,55.45387 -25.02171,26.8385 -50.27772,43.75245 -82.09233,54.97728 -5.8454,2.06235 -16.8375,8.2171 -24.42694,13.67726 -13.79898,9.92756 -13.79898,9.92756 -58.15989,-38.02719 -32.80514,-35.46279 -44.43024,-49.26036 -44.62694,-52.96677 z m 97.63277,71.86841 c 7.27992,-0.34036 23.89115,-9.64467 37.28478,-15.0831 29.8563,-12.12299 86.51663,-64.07951 81.67678,-74.89615 -4.42353,-9.88613 -11.64623,-9.13412 -23.74051,2.47183 -22.43316,21.52737 -27.96728,8.51402 -6.86709,-16.14755 23.80892,-27.8275 11.49467,-41.87193 -13.34889,-15.22451 -12.87268,13.80736 -15.91736,15.884 -20.55641,14.02049 -9.73896,-3.91205 -7.19478,-10.33779 12.42554,-31.38272 15.37092,-16.48699 18.02319,-20.49442 16.22447,-24.51429 -4.94262,-11.04636 -11.34733,-8.91438 -30.28079,10.0797 -18.80544,18.86566 -26.55587,22.52726 -27.84428,13.15466 -0.56159,-4.08566 7.40959,-13.90575 37.72264,-46.4723 40.5916,-43.60921 42.97823,-47.40362 34.43996,-54.75465 -5.36653,-4.62032 -5.36653,-4.62032 -56.24329,47.60388 -27.9822,28.72329 -51.26572,52.23018 -51.74116,52.23757 -13.489,0.20844 -8.23039,-13.82199 14.19634,-37.87711 18.15723,-19.4756 16.97505,-18.31567 13.28379,-22.39251 -15.27555,-16.87112 -58.92453,37.62735 -83.04116,94.40395 -4.99735,11.76503 -7.91138,26.35104 -5.85726,31.55773 9.27319,23.50525 53.52676,74.09123 72.26654,73.21508 z"
       id="path4"
       sodipodi:nodetypes="ssssssssssssssssssssssssssssssscsssss" /></g></svg>
